<?xml version="1.0" standalone="no"?>
<!DOCTYPE svg PUBLIC "-//W3C//DTD SVG 20010904//EN"
 "http://www.w3.org/TR/2001/REC-SVG-20010904/DTD/svg10.dtd">
<svg version="1.0" xmlns="http://www.w3.org/2000/svg"
 width="600.000000pt" height="600.000000pt" viewBox="0 0 600.000000 600.000000"
 preserveAspectRatio="xMidYMid meet">
<metadata>
Created by potrace 1.16, written by Peter Selinger 2001-2019
</metadata>
<g transform="translate(0.000000,600.000000) scale(0.100000,-0.100000)"
fill="#000000" stroke="none">
<path d="M2888 5344 c-16 -8 -28 -19 -28 -24 0 -6 -5 -10 -10 -10 -6 0 -16 -4
-23 -10 -59 -48 -77 -61 -77 -54 0 4 -13 -7 -30 -24 -16 -18 -30 -27 -30 -21
0 22 -154 -26 -156 -49 -1 -7 -2 -16 -3 -22 0 -5 -6 -10 -13 -10 -6 0 -25 -10
-42 -23 -53 -40 -54 -40 -42 3 7 28 16 40 29 40 10 0 15 5 12 10 -11 18 15 40
39 34 14 -3 28 2 39 14 14 15 14 19 2 19 -8 0 -12 -5 -9 -11 3 -6 0 -4 -8 4
-13 15 -68 22 -68 8 0 -4 -11 -3 -24 2 -13 5 -33 6 -45 3 -17 -4 -19 -8 -10
-20 7 -8 18 -12 26 -9 9 4 8 -2 -4 -19 -10 -13 -33 -30 -52 -36 -25 -8 -30
-14 -20 -20 12 -8 11 -11 -3 -20 -10 -5 -18 -19 -18 -29 0 -11 -7 -20 -15 -20
-18 0 -19 -12 -3 -28 9 -9 8 -12 -6 -12 -13 0 -17 7 -14 28 2 17 8 26 17 24
10 -2 12 4 8 20 -4 12 -2 27 4 34 7 8 6 15 -2 19 -15 10 -25 -8 -33 -56 -5
-30 -12 -40 -31 -45 -14 -3 -25 -13 -25 -22 0 -12 3 -13 12 -4 22 22 26 12 19
-50 -1 -4 -8 -5 -16 -2 -10 4 -15 0 -15 -11 0 -9 5 -13 10 -10 6 3 10 0 10 -7
1 -7 10 -2 21 12 68 81 133 139 144 128 2 -2 -17 -25 -42 -52 -24 -27 -49 -61
-55 -75 -6 -16 -12 -21 -15 -13 -7 17 -33 -4 -33 -27 0 -14 -2 -14 -10 -1 -8
12 -10 11 -10 -6 0 -12 -6 -24 -14 -27 -11 -4 -15 2 -15 21 0 15 -4 41 -10 57
l-10 30 -1 -35 c0 -28 -4 -73 -9 -111 -1 -3 -8 -6 -16 -6 -10 0 -15 10 -15 29
0 16 -4 27 -8 24 -4 -2 -7 8 -6 22 2 42 5 49 12 24 9 -29 26 -33 29 -7 13 135
13 135 38 129 13 -3 26 0 30 6 13 21 11 69 -2 75 -8 2 -11 0 -8 -5 7 -11 -67
-90 -84 -90 -6 0 -11 -6 -11 -14 0 -8 -7 -17 -16 -20 -14 -5 -14 -9 -3 -23 8
-9 9 -14 3 -10 -7 4 -19 -4 -28 -18 -17 -25 -9 -34 11 -14 9 9 10 7 6 -10 -3
-11 -9 -21 -15 -21 -5 0 -4 -8 2 -19 5 -11 10 -35 10 -55 0 -19 6 -37 13 -39
9 -4 9 -6 -1 -6 -7 -1 -22 4 -32 9 -18 10 -19 8 -13 -22 3 -18 10 -37 14 -42
11 -13 11 -26 0 -26 -20 0 -40 153 -21 165 6 3 10 13 10 22 0 20 -38 -20 -60
-63 -8 -16 -17 -31 -20 -34 -15 -15 -30 -54 -41 -109 -6 -33 -15 -61 -19 -61
-5 0 -6 -9 -3 -20 5 -17 7 -17 20 -5 23 24 35 18 28 -14 -8 -37 13 -75 32 -59
10 8 21 8 39 -1 22 -10 24 -13 10 -26 -8 -9 -22 -12 -32 -8 -12 4 -15 3 -10
-5 4 -7 16 -12 27 -12 19 0 25 -11 12 -24 -4 -4 -7 -17 -8 -29 0 -26 -40 -97
-54 -97 -17 0 -34 -43 -33 -85 0 -39 0 -39 -9 -10 -5 17 -7 36 -4 43 2 7 0 24
-5 38 -8 19 -7 31 2 42 11 13 10 14 -2 10 -9 -3 -15 -18 -16 -42 -1 -20 -7
-56 -14 -79 -7 -23 -14 -48 -16 -55 -2 -7 -8 -10 -14 -7 -6 4 -10 -6 -10 -22
0 -22 -2 -25 -10 -13 -7 11 -10 7 -10 -18 0 -20 4 -31 10 -27 6 4 8 11 5 16
-4 5 -1 9 4 9 16 0 14 -40 -2 -46 -11 -4 -11 -27 -1 -127 7 -67 13 -158 14
-202 1 -44 4 -74 7 -67 10 24 23 11 23 -24 0 -32 -1 -34 -16 -20 -29 30 -29
13 1 -24 7 -8 15 -23 18 -32 5 -15 1 -17 -28 -13 -19 2 -47 11 -63 19 -48 25
-56 11 -49 -98 5 -84 9 -101 35 -139 16 -24 32 -65 36 -90 13 -87 24 -57 21
58 -2 63 1 117 5 120 7 4 13 -118 14 -291 0 -31 3 -41 13 -37 11 4 11 8 1 21
-10 12 -6 11 15 -2 20 -14 30 -16 40 -7 20 16 27 3 27 -48 0 -85 23 -300 31
-295 5 3 9 -22 9 -56 0 -45 4 -62 15 -66 8 -4 15 -10 15 -16 0 -5 -4 -6 -10
-3 -5 3 -10 -1 -10 -9 0 -8 4 -17 9 -20 4 -3 11 -26 15 -52 3 -25 13 -62 22
-82 53 -117 76 -162 98 -195 15 -21 26 -42 26 -46 0 -5 7 -14 15 -21 9 -7 14
-19 11 -26 -3 -7 0 -16 6 -20 7 -5 8 -2 4 7 -4 8 0 5 9 -6 9 -11 25 -30 35
-43 11 -12 20 -27 20 -34 0 -6 -6 -4 -14 7 -12 17 -13 17 -19 -6 -3 -13 -9
-89 -13 -169 -3 -80 -11 -154 -17 -165 -6 -11 -10 -43 -8 -71 1 -29 -3 -60
-10 -71 -7 -12 -9 -28 -4 -39 12 -28 13 -54 2 -54 -5 0 -4 -6 2 -14 9 -11 9
-15 0 -18 -7 -2 -13 -17 -14 -33 -2 -17 -4 -32 -5 -35 -1 -3 -2 -8 -1 -12 0
-5 -52 -1 -54 5 -35 72 -48 123 -52 214 -5 86 -3 107 11 129 28 42 9 41 -31
-2 -51 -55 -73 -122 -73 -226 0 -136 33 -272 97 -403 41 -83 42 -84 75 -87 15
-1 24 -6 22 -10 -3 -4 2 -8 10 -8 9 0 16 -9 16 -21 0 -11 5 -17 10 -14 6 3 10
2 10 -3 0 -5 10 -13 23 -17 12 -4 25 -8 30 -10 4 -1 12 -3 18 -4 5 0 8 -5 5
-10 -3 -5 5 -12 18 -15 13 -3 40 -29 60 -56 20 -28 47 -55 60 -60 13 -4 36
-30 51 -57 16 -26 31 -50 34 -53 8 -7 48 -91 56 -117 4 -15 1 -23 -12 -26 -17
-4 -17 -5 0 -6 9 0 17 -5 17 -11 0 -5 6 -9 13 -7 6 1 11 -5 9 -14 -2 -17 15
-36 52 -54 11 -6 20 -19 20 -28 -1 -9 2 -14 7 -11 5 3 9 -2 9 -10 0 -9 3 -16
8 -16 8 0 45 -58 48 -75 1 -5 2 -18 3 -29 1 -12 6 -16 16 -12 8 3 15 2 15 -2
0 -5 8 -17 18 -28 10 -10 30 -39 45 -64 15 -25 43 -70 62 -100 19 -31 32 -63
29 -72 -4 -15 1 -18 28 -18 36 0 53 14 80 70 17 34 35 67 128 230 24 41 47 77
51 78 5 2 9 10 9 17 0 14 64 139 84 165 6 8 31 53 55 100 24 47 54 103 66 125
12 22 40 74 62 115 56 104 96 178 123 225 115 204 180 362 180 440 0 67 6 62
72 -50 14 -24 18 -51 17 -133 -2 -104 -11 -147 -51 -231 -12 -24 -21 -50 -21
-58 0 -7 -4 -13 -8 -13 -4 0 -14 -12 -22 -27 -41 -79 -96 -165 -111 -175 -6
-4 -7 -8 -1 -8 5 0 -13 -22 -40 -50 -27 -27 -44 -50 -38 -50 13 0 130 116 151
150 9 14 28 41 42 60 14 19 39 64 54 100 15 36 31 74 36 85 39 89 40 375 1
405 -3 3 -13 19 -23 35 -9 17 -26 35 -37 41 -12 6 -18 14 -14 17 3 4 2 7 -4 7
-6 0 -11 -27 -12 -62 -1 -35 -8 -88 -17 -118 -17 -60 -63 -172 -73 -180 -3 -3
-25 -43 -49 -90 -24 -47 -56 -107 -71 -135 -15 -27 -51 -95 -81 -150 -29 -55
-61 -113 -71 -130 -10 -16 -25 -43 -34 -60 -34 -68 -63 -108 -86 -121 -15 -8
-18 -14 -9 -14 12 0 11 -3 -3 -11 -9 -6 -15 -15 -11 -21 3 -5 -3 -23 -15 -39
-11 -15 -21 -33 -21 -38 0 -11 -41 -102 -50 -111 -7 -7 -27 -40 -48 -80 -10
-19 -30 -55 -44 -80 -14 -25 -37 -66 -50 -91 -47 -85 -53 -94 -63 -101 -24
-18 -28 -14 -131 147 -149 235 -177 285 -159 285 40 0 21 41 -25 55 -37 11
-48 25 -116 145 -21 36 -53 87 -71 114 -18 27 -32 51 -29 53 2 2 -9 18 -25 36
-16 17 -29 36 -29 41 0 14 69 -67 70 -81 0 -7 7 -13 16 -13 11 0 14 -5 10 -17
-4 -10 -4 -14 -1 -11 4 4 18 3 31 -2 19 -8 29 -5 44 10 11 11 20 27 20 36 0 8
4 12 10 9 5 -3 12 6 16 19 4 19 16 28 45 36 21 6 39 15 39 20 0 6 9 10 20 10
11 0 20 3 20 8 0 4 10 19 23 34 12 14 28 35 36 46 8 12 25 23 38 27 13 3 23
10 23 15 0 6 6 10 14 10 17 0 11 101 -7 112 -17 10 -17 88 0 88 14 0 33 40 36
73 1 10 7 15 13 13 9 -3 11 6 9 33 -5 49 -9 65 -16 71 -4 3 -9 15 -13 27 -5
16 -2 23 14 28 11 4 18 10 15 15 -3 4 2 13 10 20 8 7 15 18 15 25 0 7 10 20
23 28 l22 16 -24 -6 c-17 -4 -22 -3 -17 5 9 15 46 16 46 2 0 -21 18 -9 30 19
8 21 21 32 43 37 17 3 58 20 91 37 32 16 67 30 76 31 21 1 110 49 110 58 0 4
16 14 35 22 38 16 115 89 115 110 0 7 16 21 35 32 31 16 35 22 29 46 -3 17 -1
28 5 28 6 0 8 -7 5 -15 -20 -52 90 43 147 127 21 31 42 58 47 60 13 5 104 199
118 253 8 28 13 61 13 75 -1 14 -6 1 -11 -27 -5 -29 -14 -53 -19 -53 -5 0 -9
-11 -9 -24 0 -14 -6 -31 -13 -38 -7 -7 -14 -15 -14 -18 -1 -24 -30 -88 -47
-102 -12 -9 -17 -17 -13 -18 4 0 -4 -12 -18 -27 -14 -15 -25 -31 -25 -36 0 -4
-4 -5 -10 -2 -5 3 -7 0 -4 -8 3 -8 -2 -20 -11 -27 -9 -7 -15 -9 -13 -4 2 5 -1
10 -7 11 -5 2 -10 -3 -10 -10 0 -8 -8 -22 -18 -31 -9 -10 -17 -23 -17 -30 0
-17 -44 -36 -78 -35 -17 1 -20 3 -9 6 9 2 17 8 17 13 0 15 -20 22 -33 12 -22
-17 -47 -10 -54 16 -4 18 -8 21 -14 10 -7 -9 -9 -8 -7 7 3 39 -2 50 -27 62
-14 6 -23 7 -19 2 3 -5 0 -9 -5 -9 -6 0 -11 9 -11 20 0 13 -10 24 -27 30 -16
6 -35 14 -43 18 -25 14 -42 3 -24 -15 14 -15 14 -17 -5 -28 -12 -6 -18 -14
-15 -18 4 -4 0 -7 -10 -7 -9 0 -15 4 -12 9 3 5 -1 11 -9 15 -9 3 -15 0 -15 -8
0 -8 -11 -17 -24 -20 -25 -6 -25 -7 -10 -44 10 -24 11 -33 4 -25 -19 17 -43
-11 -37 -42 3 -18 0 -25 -12 -26 -73 -7 -81 -6 -81 5 0 7 -12 18 -26 25 -15 6
-24 15 -20 18 3 4 -4 17 -16 30 -12 12 -19 26 -15 29 3 3 17 -6 31 -21 15 -16
26 -23 26 -16 0 6 -7 14 -15 17 -8 4 -15 14 -15 23 0 17 35 53 48 48 14 -4 52
43 52 67 0 26 -32 45 -106 65 -45 12 -58 23 -67 60 -6 26 14 50 43 51 8 0 38
12 65 26 55 28 161 43 190 27 16 -9 16 -11 0 -26 -20 -20 -22 -19 42 -22 43
-2 59 -8 89 -34 26 -24 39 -30 47 -22 18 18 35 89 31 124 l-3 32 13 -35 c13
-32 15 -33 15 -9 1 14 -8 34 -19 44 -11 10 -17 22 -14 26 3 5 0 9 -7 9 -7 0
-10 2 -7 5 3 3 -15 26 -39 50 -41 41 -58 50 -89 46 -7 -1 -14 5 -18 14 -3 8
-14 15 -24 15 -11 0 -25 7 -32 15 -6 8 -15 14 -18 13 -8 -1 -51 15 -97 37 -43
20 -67 28 -92 31 -41 5 -63 23 -63 52 0 72 -53 151 -102 153 -41 2 -73 -3 -83
-12 -5 -5 -17 -9 -26 -9 -10 0 -25 -7 -33 -16 -9 -8 -16 -12 -16 -9 0 4 -9 -3
-21 -16 l-20 -24 5 55 c3 30 10 56 16 58 5 2 10 8 10 14 0 6 11 23 25 40 14
16 25 36 25 44 0 8 4 14 9 14 5 0 11 18 15 39 3 22 12 46 19 53 6 7 18 25 26
41 8 15 18 27 22 27 4 0 10 11 13 25 4 14 11 25 16 25 6 0 10 5 10 11 0 12 51
121 61 129 10 9 29 72 29 99 0 15 5 32 11 38 8 8 8 19 -2 42 -11 25 -21 32
-59 38 -25 4 -53 6 -62 4 -10 -1 -18 3 -18 9 0 6 -4 9 -9 5 -6 -3 -40 2 -76
11 -56 14 -65 19 -60 35 4 11 2 19 -4 19 -5 0 -12 -9 -16 -20 -3 -11 -27 -29
-53 -40 -39 -17 -51 -19 -72 -9 -14 6 -61 14 -106 16 -62 4 -87 2 -112 -11
-17 -9 -48 -20 -68 -24 -33 -7 -39 -13 -53 -52 -9 -25 -28 -58 -44 -75 -70
-77 -49 -195 36 -195 28 0 88 -23 116 -44 21 -16 144 -66 163 -66 10 0 18 -5
18 -11 0 -6 6 -9 13 -6 6 2 24 -2 40 -10 15 -7 27 -11 27 -8 0 4 7 -1 16 -10
11 -11 25 -14 41 -11 18 5 26 1 35 -19 6 -14 15 -25 20 -25 5 0 6 -5 3 -10 -4
-6 -12 -8 -18 -4 -7 3 -5 -1 5 -8 29 -24 25 -54 -9 -87 -18 -17 -33 -38 -33
-46 0 -13 -19 -20 -43 -16 -5 1 -6 -3 -2 -9 3 -5 2 -10 -3 -10 -13 0 -10 -33
3 -42 6 -4 -5 -10 -22 -14 -23 -5 -33 -12 -33 -25 0 -11 7 -19 16 -19 10 0 14
-6 10 -15 -3 -9 0 -15 8 -15 8 0 24 -12 35 -27 l21 -28 6 23 c5 19 12 22 38
19 24 -2 31 -8 32 -26 1 -12 -7 -26 -17 -32 -15 -8 -17 -6 -12 8 6 16 5 17
-13 3 -10 -8 -22 -18 -25 -22 -8 -11 -69 -17 -69 -7 0 5 -7 9 -15 9 -8 0 -15
-4 -15 -10 0 -5 -5 -10 -11 -10 -5 0 -8 4 -5 9 7 11 -17 21 -48 21 -12 0 -28
6 -35 13 -10 10 -12 9 -9 -2 2 -8 -5 -17 -14 -19 -24 -5 -24 27 -1 44 24 17
12 26 -39 30 -23 1 -47 9 -53 17 -5 7 -16 12 -22 10 -20 -7 -15 -23 6 -23 23
0 37 -16 19 -22 -7 -3 -19 1 -26 9 -21 20 -52 16 -52 -7 0 -10 -8 -23 -17 -29
-10 -5 -14 -13 -10 -17 5 -5 12 -2 16 5 5 7 11 9 14 5 3 -5 -4 -20 -15 -34
-13 -15 -23 -20 -25 -13 -2 7 -11 9 -19 6 -8 -3 -14 0 -14 6 0 6 -4 11 -10 11
-5 0 -10 -7 -10 -15 0 -12 -4 -13 -18 -4 -13 8 -17 20 -14 36 3 18 1 22 -12
17 -12 -5 -16 0 -16 17 -1 21 -2 22 -11 7 -5 -10 -16 -15 -24 -12 -11 4 -15
-1 -15 -17 -1 -22 -2 -22 -11 -6 -6 10 -8 25 -5 32 3 8 2 16 -2 19 -4 3 -9 21
-10 42 -2 20 -7 44 -12 54 -5 9 -12 39 -16 66 -3 27 -9 51 -13 54 -3 3 -7 19
-8 35 0 17 -5 50 -9 75 -7 40 -9 42 -15 20 -7 -24 -7 -24 -9 5 -1 17 -1 34 0
40 1 5 1 17 1 25 -4 51 1 155 9 173 7 18 9 14 11 -23 2 -36 4 -30 9 30 23 226
32 295 40 304 38 47 68 253 39 271 -8 6 -8 9 1 15 9 5 9 12 1 26 -6 11 -18 48
-26 84 -9 36 -19 74 -21 85 -7 28 -14 94 -8 72 10 -32 35 -14 58 40 20 48 61
93 84 93 5 0 13 7 16 16 6 16 17 16 75 -2 23 -7 24 -6 17 30 l-7 36 41 -16
c56 -23 135 -12 172 23 l27 26 31 -27 c17 -14 41 -26 51 -26 11 0 27 -7 35
-15 9 -8 25 -15 37 -15 12 -1 33 -7 47 -15 14 -8 35 -14 48 -15 12 0 31 -9 41
-19 14 -14 22 -16 30 -8 8 8 11 8 11 -1 0 -6 12 -10 29 -9 21 1 27 5 20 14 -7
8 -5 10 10 6 29 -7 131 -135 131 -163 0 -6 4 -10 10 -10 5 0 16 -13 24 -29 26
-49 151 -94 171 -61 4 6 -11 10 -37 10 -24 0 -56 5 -70 12 -25 12 -105 116
-100 131 1 4 -5 10 -13 13 -8 3 -12 10 -9 15 3 5 1 9 -4 9 -6 0 -15 14 -21 30
-7 22 -7 29 0 24 7 -4 9 2 5 17 -3 13 -3 18 0 12 3 -7 12 -13 19 -13 16 0 75
-71 99 -118 10 -19 20 -31 23 -28 3 3 0 12 -6 20 -7 8 -13 36 -14 61 -1 24 -5
45 -9 45 -5 0 -8 4 -8 8 0 4 18 9 40 10 23 2 40 -2 40 -8 0 -5 22 -10 51 -10
28 0 59 -5 70 -11 14 -7 24 -7 32 0 8 6 18 6 26 1 8 -4 21 -6 29 -2 9 3 13 1
9 -5 -8 -13 39 -27 55 -17 5 4 15 0 20 -7 7 -11 11 -11 15 -1 7 19 32 15 81
-14 80 -47 115 -81 109 -105 -6 -23 1 -24 25 -2 11 9 18 11 18 5 0 -13 40 -62
50 -62 8 0 5 37 -5 72 -16 52 32 -16 59 -84 29 -74 32 -93 14 -82 -10 6 -10 4
0 -7 6 -7 12 -23 12 -36 0 -29 17 -67 58 -128 45 -67 62 -76 62 -33 0 18 4 28
8 21 4 -6 6 39 5 99 -1 84 2 114 13 125 8 8 14 25 14 39 0 13 5 24 10 24 6 0
11 -19 11 -42 -1 -24 1 -56 3 -73 3 -16 5 -47 5 -67 1 -20 8 -43 16 -52 9 -8
15 -33 15 -60 0 -27 6 -51 16 -60 20 -21 34 -20 34 2 0 11 5 7 16 -13 26 -51
49 -58 57 -17 3 15 9 41 13 57 7 27 6 29 -9 16 -15 -12 -17 -11 -15 12 2 25
16 31 30 12 4 -6 8 -1 9 10 2 34 3 38 23 87 10 25 16 52 14 60 -3 7 1 19 9 26
7 7 13 25 13 40 0 19 -3 23 -9 14 -6 -10 -10 -8 -14 9 -3 13 -2 28 4 35 7 8 6
13 -1 16 -6 2 -12 18 -15 36 -2 18 -9 40 -16 48 -7 8 -13 27 -14 42 -1 15 -16
52 -32 83 -16 30 -33 63 -37 74 -7 18 -6 18 12 2 11 -10 26 -15 36 -11 11 4
16 1 16 -11 0 -9 -4 -13 -10 -10 -5 3 -10 1 -10 -4 0 -6 7 -11 15 -11 8 0 15
-4 15 -10 0 -5 -5 -10 -10 -10 -6 0 -4 -13 5 -30 9 -17 19 -29 23 -26 15 9 13
79 -3 102 -9 14 -13 30 -9 37 4 7 4 9 -1 5 -5 -5 -15 1 -22 12 -8 11 -19 18
-25 14 -6 -4 -6 -10 1 -17 6 -6 11 -18 11 -26 0 -10 -7 -8 -25 9 -13 12 -22
26 -20 30 2 4 -7 23 -20 42 -13 20 -21 38 -18 42 4 3 1 6 -6 6 -7 0 -11 5 -9
12 5 14 -21 48 -37 48 -6 0 -18 8 -27 18 -28 29 -46 41 -52 35 -3 -4 -6 -1 -6
6 0 7 -18 30 -40 51 -22 21 -40 48 -40 59 0 11 -4 23 -10 26 -5 3 -10 0 -10
-7 0 -7 -7 -3 -15 8 -8 12 -28 27 -45 34 -30 12 -38 24 -22 34 5 3 20 -6 35
-19 14 -14 28 -21 31 -16 3 5 -1 12 -10 15 -9 3 -12 11 -8 18 4 7 4 10 1 7 -4
-3 -26 12 -49 34 -38 36 -43 38 -54 22 -12 -16 -15 -15 -39 9 -14 14 -33 26
-41 26 -12 0 -14 7 -9 29 5 25 1 33 -29 56 -20 15 -36 36 -36 46 0 11 -7 19
-15 19 -8 0 -15 5 -15 11 0 5 -4 8 -9 5 -5 -4 -11 0 -14 6 -2 7 -8 10 -12 6
-10 -10 44 -80 56 -73 5 4 9 -1 9 -9 0 -20 -2 -20 -45 4 -19 11 -35 15 -35 10
0 -17 -29 1 -36 22 -4 15 -13 19 -34 16 -16 -2 -27 -1 -24 4 6 10 -10 11 -19
1 -4 -3 -1 -14 7 -22 10 -11 12 -22 6 -30 -7 -12 -18 -11 -65 7 -70 27 -73 27
-49 0 10 -12 13 -18 5 -13 -11 6 -13 3 -9 -13 7 -26 -3 -27 -42 -7 -27 14 -29
14 -23 -1 5 -14 3 -15 -15 -5 -21 11 -31 40 -14 42 4 0 16 2 26 4 10 2 25 -3
34 -11 8 -8 17 -13 19 -10 3 3 -11 21 -31 40 -37 35 -34 47 11 38 13 -2 20 -8
17 -13 -3 -5 2 -9 10 -9 19 0 19 1 6 35 -7 19 -15 25 -27 21 -14 -6 -14 -4 -2
11 8 10 19 21 24 25 6 4 -2 8 -17 8 -16 0 -31 1 -35 2 -5 1 -23 5 -40 9 -33 7
-46 -4 -18 -15 8 -3 15 -11 15 -18 0 -10 -2 -10 -8 -1 -9 15 -71 43 -129 58
-37 10 -42 10 -46 -7 -3 -10 -1 -16 4 -12 5 3 9 -8 9 -25 0 -16 -5 -33 -10
-36 -7 -4 -8 3 -4 22 l7 28 -30 -28 -31 -28 -5 33 c-4 23 0 37 11 46 14 11 13
12 -6 12 -26 0 -29 17 -4 23 14 4 14 5 -3 5 -11 1 -32 -6 -47 -14z m88 -2683
c14 -13 99 -20 118 -9 10 5 25 6 34 2 9 -4 22 -8 27 -9 17 -2 59 -16 92 -31
17 -8 42 -15 56 -16 14 -1 23 -7 20 -14 -2 -6 3 -14 11 -17 17 -7 22 -42 7
-51 -11 -7 -72 14 -90 31 -11 12 -15 11 -26 -4 -12 -16 -13 -14 -9 12 2 17 1
23 -2 15 -10 -22 -37 -47 -61 -54 -17 -5 -19 -3 -15 24 4 26 1 32 -18 37 -16
4 -18 8 -8 15 8 5 -5 7 -34 6 -27 -2 -48 -6 -48 -10 0 -9 -130 55 -130 64 0
14 62 22 76 9z m-887 -933 c-19 -36 -3 -193 30 -295 16 -48 29 -99 29 -113 1
-14 6 -26 12 -28 13 -5 13 -29 0 -34 -6 -2 -3 -15 6 -33 16 -31 11 -81 -7 -69
-7 4 -7 -1 0 -15 15 -27 6 -27 -27 1 -15 12 -19 18 -9 15 9 -4 17 -2 17 3 0 6
-6 10 -14 10 -14 0 -26 29 -26 67 0 12 -6 23 -12 26 -10 3 -9 8 2 22 8 10 10
16 3 12 -8 -5 -15 11 -23 50 -7 32 -16 68 -21 81 -5 13 -9 65 -9 117 0 78 4
104 24 150 14 30 28 55 31 55 3 0 0 -10 -6 -22z"/>
<path d="M3143 3698 c-33 -7 -43 -14 -43 -29 0 -24 58 -84 90 -94 15 -5 19
-12 14 -23 -3 -10 -10 -34 -14 -55 -6 -33 -4 -40 18 -57 13 -11 33 -20 43 -20
11 0 19 -4 19 -10 0 -5 -7 -10 -15 -10 -16 0 -19 -9 -7 -27 11 -18 122 -53
167 -52 35 0 37 1 17 10 -19 7 -22 14 -16 31 4 13 12 26 18 30 6 5 7 8 1 9 -5
1 10 5 35 10 66 11 210 11 210 -1 0 -5 7 -10 15 -10 36 0 8 22 -115 90 -15 8
-35 23 -44 33 -10 9 -25 17 -35 17 -17 0 -41 18 -41 31 0 4 12 9 28 12 85 18
155 35 145 36 -7 0 -13 12 -13 25 0 14 -5 28 -12 32 -7 4 -76 9 -155 10 -95 1
-148 6 -158 14 -9 7 -22 9 -32 5 -21 -9 -20 -9 -53 -3 -14 3 -44 1 -67 -4z"/>
</g>
</svg>
